<svg width="73" height="19" viewBox="0 0 73 19" fill="none" xmlns="http://www.w3.org/2000/svg">
<path fill-rule="evenodd" clip-rule="evenodd" d="M49.697 1.288L46.745 18.088H48.761L50.105 10.432H56.801L57.089 8.872H50.393L51.425 2.896H59.393L59.681 1.288H49.697ZM62.2795 17.848C63.1115 18.2 64.0795 18.376 65.1835 18.376C66.4475 18.376 67.5515 18.152 68.4955 17.704C69.4395 17.256 70.1755 16.632 70.7035 15.832C71.2315 15.032 71.4955 14.096 71.4955 13.024C71.4955 11.952 71.1595 11.088 70.4875 10.432C69.8155 9.76 68.9915 9.24 68.0155 8.872C67.2315 8.584 66.5115 8.32 65.8555 8.08C65.1995 7.84 64.6715 7.544 64.2715 7.192C63.8875 6.824 63.6955 6.336 63.6955 5.728C63.6955 4.864 64.0155 4.152 64.6555 3.592C65.3115 3.016 66.1675 2.728 67.2235 2.728C68.2155 2.728 68.9515 2.984 69.4315 3.496C69.9275 4.008 70.1755 4.576 70.1755 5.2C70.1755 5.28 70.1675 5.36 70.1515 5.44V5.656H72.2395C72.2875 5.4 72.3115 5.152 72.3115 4.912C72.3115 4.144 72.1115 3.464 71.7115 2.872C71.3115 2.28 70.7435 1.824 70.0075 1.504C69.2875 1.168 68.4555 1 67.5115 1C66.3275 1 65.2875 1.216 64.3915 1.648C63.4955 2.064 62.7995 2.648 62.3035 3.4C61.8075 4.152 61.5595 5.032 61.5595 6.04C61.5595 6.888 61.8155 7.648 62.3275 8.32C62.8555 8.976 63.6475 9.496 64.7035 9.88C65.2635 10.088 65.8155 10.288 66.3595 10.48C66.9195 10.656 67.4235 10.864 67.8715 11.104C68.3195 11.328 68.6715 11.616 68.9275 11.968C69.1995 12.304 69.3355 12.736 69.3355 13.264C69.3355 14.288 68.9995 15.112 68.3275 15.736C67.6555 16.36 66.6795 16.672 65.3995 16.672C64.2955 16.672 63.4155 16.392 62.7595 15.832C62.1195 15.272 61.7995 14.56 61.7995 13.696C61.7995 13.488 61.8235 13.272 61.8715 13.048H59.7595C59.7275 13.208 59.7035 13.376 59.6875 13.552C59.6715 13.712 59.6635 13.864 59.6635 14.008C59.6635 14.888 59.8955 15.656 60.3595 16.312C60.8235 16.968 61.4635 17.48 62.2795 17.848ZM1 1.288V18.088H6.736C8.704 18.088 10.32 17.744 11.584 17.056C12.864 16.352 13.808 15.376 14.416 14.128C15.04 12.864 15.352 11.384 15.352 9.688C15.352 7.992 15.04 6.52 14.416 5.272C13.808 4.008 12.864 3.032 11.584 2.344C10.32 1.64 8.704 1.288 6.736 1.288H1ZM6.592 15.448H4.072V3.904H6.592C8 3.904 9.112 4.136 9.928 4.6C10.744 5.064 11.328 5.728 11.68 6.592C12.032 7.456 12.208 8.488 12.208 9.688C12.208 10.904 12.032 11.944 11.68 12.808C11.328 13.656 10.744 14.312 9.928 14.776C9.112 15.224 8 15.448 6.592 15.448ZM20.5825 17.584C21.5105 18.112 22.5505 18.376 23.7025 18.376C24.8385 18.376 25.8705 18.112 26.7985 17.584C27.7265 17.056 28.4545 16.328 28.9825 15.4C29.5265 14.456 29.7985 13.368 29.7985 12.136C29.7985 10.904 29.5265 9.824 28.9825 8.896C28.4545 7.952 27.7265 7.216 26.7985 6.688C25.8865 6.16 24.8625 5.896 23.7265 5.896C22.5745 5.896 21.5345 6.16 20.6065 6.688C19.6945 7.216 18.9665 7.952 18.4225 8.896C17.8785 9.824 17.6065 10.904 17.6065 12.136C17.6065 13.368 17.8705 14.456 18.3985 15.4C18.9425 16.328 19.6705 17.056 20.5825 17.584ZM25.7905 14.824C25.1985 15.416 24.5025 15.712 23.7025 15.712C22.9025 15.712 22.2065 15.416 21.6145 14.824C21.0385 14.216 20.7505 13.32 20.7505 12.136C20.7505 10.952 21.0385 10.064 21.6145 9.472C22.2065 8.864 22.9105 8.56 23.7265 8.56C24.5105 8.56 25.1985 8.864 25.7905 9.472C26.3825 10.064 26.6785 10.952 26.6785 12.136C26.6785 13.32 26.3825 14.216 25.7905 14.824ZM35.1372 17.584C36.0652 18.112 37.1052 18.376 38.2572 18.376C39.3932 18.376 40.4252 18.112 41.3532 17.584C42.2812 17.056 43.0092 16.328 43.5372 15.4C44.0812 14.456 44.3532 13.368 44.3532 12.136C44.3532 10.904 44.0812 9.824 43.5372 8.896C43.0092 7.952 42.2812 7.216 41.3532 6.688C40.4412 6.16 39.4172 5.896 38.2812 5.896C37.1292 5.896 36.0892 6.16 35.1612 6.688C34.2492 7.216 33.5212 7.952 32.9772 8.896C32.4332 9.824 32.1612 10.904 32.1612 12.136C32.1612 13.368 32.4252 14.456 32.9532 15.4C33.4972 16.328 34.2252 17.056 35.1372 17.584ZM40.3452 14.824C39.7532 15.416 39.0572 15.712 38.2572 15.712C37.4572 15.712 36.7612 15.416 36.1692 14.824C35.5932 14.216 35.3052 13.32 35.3052 12.136C35.3052 10.952 35.5932 10.064 36.1692 9.472C36.7612 8.864 37.4652 8.56 38.2812 8.56C39.0652 8.56 39.7532 8.864 40.3452 9.472C40.9372 10.064 41.2332 10.952 41.2332 12.136C41.2332 13.32 40.9372 14.216 40.3452 14.824Z" fill="white"/>
<path d="M46.745 18.088L46.2525 18.0015L46.1495 18.588H46.745V18.088ZM49.697 1.288V0.787999H49.2772L49.2045 1.20147L49.697 1.288ZM48.761 18.088V18.588H49.1808L49.2534 18.1745L48.761 18.088ZM50.105 10.432V9.932H49.6851L49.6125 10.3455L50.105 10.432ZM56.801 10.432V10.932H57.2171L57.2927 10.5228L56.801 10.432ZM57.089 8.872L57.5807 8.96277L57.6897 8.372H57.089V8.872ZM50.393 8.872L49.9003 8.78691L49.7992 9.372H50.393V8.872ZM51.425 2.896V2.396H51.0039L50.9323 2.81091L51.425 2.896ZM59.393 2.896V3.396H59.8114L59.8851 2.98415L59.393 2.896ZM59.681 1.288L60.1731 1.37615L60.2785 0.787999H59.681V1.288ZM62.2795 17.848L62.0739 18.3039L62.0847 18.3085L62.2795 17.848ZM70.7035 15.832L70.2862 15.5566L70.2862 15.5566L70.7035 15.832ZM70.4875 10.432L70.134 10.7856L70.1383 10.7898L70.4875 10.432ZM68.0155 8.872L68.1919 8.40413L68.1879 8.40267L68.0155 8.872ZM65.8555 8.08L65.6837 8.54956L65.6837 8.54956L65.8555 8.08ZM64.2715 7.192L63.9256 7.55299L63.9333 7.56034L63.9412 7.56736L64.2715 7.192ZM64.6555 3.592L64.9848 3.96829L64.9854 3.96772L64.6555 3.592ZM69.4315 3.496L69.0667 3.83802L69.0724 3.84389L69.4315 3.496ZM70.1515 5.44L69.6613 5.34195L69.6515 5.39049V5.44H70.1515ZM70.1515 5.656H69.6515V6.156H70.1515V5.656ZM72.2395 5.656V6.156H72.6545L72.731 5.74814L72.2395 5.656ZM70.0075 1.504L69.796 1.95725L69.8082 1.96253L70.0075 1.504ZM64.3915 1.648L64.6021 2.10155L64.6087 2.09838L64.3915 1.648ZM62.3035 3.4L61.8862 3.1247L61.8862 3.1247L62.3035 3.4ZM62.3275 8.32L61.9297 8.62313L61.938 8.6335L62.3275 8.32ZM64.7035 9.88L64.8776 9.41128L64.8744 9.4101L64.7035 9.88ZM66.3595 10.48L66.1931 10.9515L66.2013 10.9544L66.2096 10.957L66.3595 10.48ZM67.8715 11.104L67.6353 11.5449L67.6479 11.5512L67.8715 11.104ZM68.9275 11.968L68.5232 12.2621L68.5308 12.2725L68.5389 12.2826L68.9275 11.968ZM68.3275 15.736L67.9873 15.3696L67.9873 15.3696L68.3275 15.736ZM62.7595 15.832L62.4303 16.2083L62.4349 16.2123L62.7595 15.832ZM61.8715 13.048L62.3604 13.1528L62.49 12.548H61.8715V13.048ZM59.7595 13.048V12.548H59.3496L59.2693 12.9499L59.7595 13.048ZM59.6875 13.552L60.1851 13.6018L60.1855 13.5973L59.6875 13.552ZM1 18.088H0.5V18.588H1V18.088ZM1 1.288V0.788H0.5V1.288H1ZM11.584 17.056L11.823 17.4952L11.825 17.4941L11.584 17.056ZM14.416 14.128L13.9677 13.9067L13.9665 13.909L14.416 14.128ZM14.416 5.272L13.9654 5.48876L13.9688 5.49561L14.416 5.272ZM11.584 2.344L11.3407 2.78087L11.3473 2.78441L11.584 2.344ZM4.072 15.448H3.572V15.948H4.072V15.448ZM4.072 3.904V3.404H3.572V3.904H4.072ZM11.68 6.592L11.217 6.78065L11.217 6.78065L11.68 6.592ZM11.68 12.808L12.1418 12.9997L12.143 12.9966L11.68 12.808ZM9.928 14.776L10.1687 15.2143L10.1752 15.2106L9.928 14.776ZM20.5825 17.584L20.332 18.0167L20.3352 18.0186L20.5825 17.584ZM28.9825 15.4L28.5493 15.1503L28.5479 15.1527L28.9825 15.4ZM28.9825 8.896L28.546 9.14013L28.5512 9.14886L28.9825 8.896ZM26.7985 6.688L26.548 7.12073L26.5512 7.12258L26.7985 6.688ZM20.6065 6.688L20.3592 6.25341L20.356 6.25529L20.6065 6.688ZM18.4225 8.896L18.8539 9.14887L18.8557 9.14565L18.4225 8.896ZM18.3985 15.4L17.962 15.6441L17.9672 15.6529L18.3985 15.4ZM25.7905 14.824L26.1441 15.1776L26.1487 15.1728L25.7905 14.824ZM21.6145 14.824L21.2514 15.168L21.2609 15.1776L21.6145 14.824ZM21.6145 9.472L21.2563 9.12319L21.2561 9.12332L21.6145 9.472ZM25.7905 9.472L25.4322 9.82084L25.4369 9.82555L25.7905 9.472ZM35.1372 17.584L34.8867 18.0167L34.8899 18.0186L35.1372 17.584ZM43.5372 15.4L43.104 15.1503L43.1026 15.1527L43.5372 15.4ZM43.5372 8.896L43.1007 9.14013L43.1058 9.14886L43.5372 8.896ZM41.3532 6.688L41.1027 7.12073L41.1059 7.12258L41.3532 6.688ZM35.1612 6.688L34.9139 6.25341L34.9107 6.25529L35.1612 6.688ZM32.9772 8.896L33.4085 9.14887L33.4104 9.14565L32.9772 8.896ZM32.9532 15.4L32.5167 15.6441L32.5218 15.6529L32.9532 15.4ZM40.3452 14.824L40.6988 15.1776L40.7034 15.1728L40.3452 14.824ZM36.1692 14.824L35.8061 15.168L35.8156 15.1776L36.1692 14.824ZM36.1692 9.472L35.811 9.12319L35.8108 9.12332L36.1692 9.472ZM40.3452 9.472L39.9869 9.82084L39.9916 9.82555L40.3452 9.472ZM47.2374 18.1745L50.1894 1.37453L49.2045 1.20147L46.2525 18.0015L47.2374 18.1745ZM48.761 17.588H46.745V18.588H48.761V17.588ZM49.6125 10.3455L48.2685 18.0015L49.2534 18.1745L50.5974 10.5185L49.6125 10.3455ZM56.801 9.932H50.105V10.932H56.801V9.932ZM56.5973 8.78123L56.3093 10.3412L57.2927 10.5228L57.5807 8.96277L56.5973 8.78123ZM50.393 9.372H57.089V8.372H50.393V9.372ZM50.9323 2.81091L49.9003 8.78691L50.8857 8.95709L51.9177 2.98109L50.9323 2.81091ZM59.393 2.396H51.425V3.396H59.393V2.396ZM59.1888 1.19985L58.9008 2.80785L59.8851 2.98415L60.1731 1.37615L59.1888 1.19985ZM49.697 1.788H59.681V0.787999H49.697V1.788ZM65.1835 17.876C64.132 17.876 63.2327 17.7083 62.4744 17.3875L62.0847 18.3085C62.9904 18.6917 64.0271 18.876 65.1835 18.876V17.876ZM68.2812 17.2523C67.4167 17.6625 66.3887 17.876 65.1835 17.876V18.876C66.5064 18.876 67.6863 18.6415 68.7099 18.1557L68.2812 17.2523ZM70.2862 15.5566C69.813 16.2736 69.1504 16.8398 68.2812 17.2523L68.7099 18.1557C69.7287 17.6722 70.5381 16.9904 71.1208 16.1074L70.2862 15.5566ZM70.9955 13.024C70.9955 14.0101 70.754 14.8478 70.2862 15.5566L71.1208 16.1074C71.709 15.2162 71.9955 14.1819 71.9955 13.024H70.9955ZM70.1383 10.7898C70.7 11.3381 70.9955 12.0659 70.9955 13.024H71.9955C71.9955 11.8381 71.6191 10.8379 70.8368 10.0742L70.1383 10.7898ZM67.8391 9.33985C68.7552 9.68524 69.517 10.1685 70.134 10.7856L70.8411 10.0784C70.1141 9.35147 69.2279 8.79476 68.1919 8.40415L67.8391 9.33985ZM65.6837 8.54956C66.3395 8.78947 67.0593 9.0534 67.8431 9.34134L68.1879 8.40267C67.4038 8.1146 66.6836 7.85053 66.0273 7.61044L65.6837 8.54956ZM63.9412 7.56736C64.3998 7.97086 64.9867 8.29454 65.6837 8.54956L66.0273 7.61044C65.4124 7.38546 64.9433 7.11714 64.6019 6.81664L63.9412 7.56736ZM63.1955 5.728C63.1955 6.45095 63.4288 7.07688 63.9256 7.55299L64.6175 6.83101C64.3463 6.57112 64.1955 6.22104 64.1955 5.728H63.1955ZM64.3263 3.21571C63.5758 3.87238 63.1955 4.72246 63.1955 5.728H64.1955C64.1955 5.00554 64.4553 4.43162 64.9848 3.96829L64.3263 3.21571ZM67.2235 2.228C66.0728 2.228 65.0911 2.54418 64.3256 3.21628L64.9854 3.96772C65.532 3.48782 66.2623 3.228 67.2235 3.228V2.228ZM69.7963 3.15403C69.1881 2.50533 68.2954 2.228 67.2235 2.228V3.228C68.1357 3.228 68.7149 3.46267 69.0668 3.83797L69.7963 3.15403ZM70.6755 5.2C70.6755 4.42743 70.3631 3.73901 69.7907 3.1481L69.0724 3.84389C69.492 4.27699 69.6755 4.72457 69.6755 5.2H70.6755ZM70.6418 5.53805C70.6642 5.42639 70.6755 5.31356 70.6755 5.2H69.6755C69.6755 5.24645 69.6709 5.29361 69.6613 5.34195L70.6418 5.53805ZM70.6515 5.656V5.44H69.6515V5.656H70.6515ZM72.2395 5.156H70.1515V6.156H72.2395V5.156ZM71.8115 4.912C71.8115 5.11859 71.7909 5.33569 71.7481 5.56386L72.731 5.74814C72.7842 5.46431 72.8115 5.18541 72.8115 4.912H71.8115ZM71.2972 3.15193C71.6372 3.65499 71.8115 4.23592 71.8115 4.912H72.8115C72.8115 4.05208 72.5859 3.27301 72.1258 2.59207L71.2972 3.15193ZM69.8082 1.96253C70.4681 2.24945 70.9568 2.64812 71.2972 3.15193L72.1258 2.59207C71.6662 1.91188 71.019 1.39855 70.2069 1.04546L69.8082 1.96253ZM67.5115 1.5C68.3961 1.5 69.1536 1.65726 69.7961 1.95709L70.219 1.05091C69.4215 0.678742 68.515 0.5 67.5115 0.5V1.5ZM64.6087 2.09838C65.4253 1.70468 66.3886 1.5 67.5115 1.5V0.5C66.2665 0.5 65.1498 0.72732 64.1744 1.19761L64.6087 2.09838ZM62.7209 3.6753C63.161 3.00813 63.7818 2.48234 64.6021 2.1015L64.181 1.19449C63.2093 1.64566 62.4381 2.28787 61.8862 3.1247L62.7209 3.6753ZM62.0595 6.04C62.0595 5.11782 62.2851 4.33608 62.7209 3.6753L61.8862 3.1247C61.33 3.96792 61.0595 4.94618 61.0595 6.04H62.0595ZM62.7253 8.01698C62.2799 7.43242 62.0595 6.77896 62.0595 6.04H61.0595C61.0595 6.99704 61.3512 7.86358 61.9298 8.62302L62.7253 8.01698ZM64.8744 9.4101C63.8764 9.04717 63.1717 8.57139 62.717 8.0065L61.938 8.6335C62.5394 9.38061 63.4187 9.94482 64.5327 10.3499L64.8744 9.4101ZM66.526 10.0085C65.9846 9.81744 65.4352 9.61837 64.8776 9.41129L64.5294 10.3487C65.0919 10.5576 65.6465 10.7586 66.1931 10.9515L66.526 10.0085ZM68.1076 10.6633C67.6283 10.4064 67.0948 10.187 66.5095 10.003L66.2096 10.957C66.7443 11.125 67.2188 11.3216 67.6354 11.5447L68.1076 10.6633ZM69.3319 11.6739C69.0221 11.248 68.6039 10.9112 68.0951 10.6568L67.6479 11.5512C68.0351 11.7448 68.3209 11.984 68.5232 12.2621L69.3319 11.6739ZM69.8355 13.264C69.8355 12.6477 69.6751 12.0968 69.3162 11.6534L68.5389 12.2826C68.7239 12.5112 68.8355 12.8243 68.8355 13.264H69.8355ZM68.6678 16.1024C69.4541 15.3722 69.8355 14.4091 69.8355 13.264H68.8355C68.8355 14.1669 68.545 14.8518 67.9873 15.3696L68.6678 16.1024ZM65.3995 17.172C66.7556 17.172 67.8721 16.8412 68.6678 16.1024L67.9873 15.3696C67.439 15.8788 66.6035 16.172 65.3995 16.172V17.172ZM62.4349 16.2123C63.2044 16.8691 64.2106 17.172 65.3995 17.172V16.172C64.3804 16.172 63.6267 15.9149 63.0842 15.4517L62.4349 16.2123ZM61.2995 13.696C61.2995 14.7015 61.6798 15.5516 62.4303 16.2083L63.0888 15.4557C62.5593 14.9924 62.2995 14.4185 62.2995 13.696H61.2995ZM61.3826 12.9432C61.328 13.1982 61.2995 13.4494 61.2995 13.696H62.2995C62.2995 13.5266 62.3191 13.3458 62.3604 13.1528L61.3826 12.9432ZM59.7595 13.548H61.8715V12.548H59.7595V13.548ZM60.1855 13.5973C60.2 13.4375 60.2216 13.2872 60.2498 13.1461L59.2693 12.9499C59.2335 13.1288 59.2071 13.3145 59.1896 13.5067L60.1855 13.5973ZM60.1635 14.008C60.1635 13.8824 60.1705 13.7471 60.1851 13.6017L59.19 13.5023C59.1726 13.6769 59.1635 13.8456 59.1635 14.008H60.1635ZM60.7677 16.0233C60.3692 15.4598 60.1635 14.7949 60.1635 14.008H59.1635C59.1635 14.9811 59.4219 15.8522 59.9513 16.6007L60.7677 16.0233ZM62.4851 17.3922C61.7408 17.0566 61.1746 16.5985 60.7677 16.0233L59.9513 16.6007C60.4725 17.3375 61.1863 17.9034 62.074 18.3038L62.4851 17.3922ZM1.5 18.088V1.288H0.5V18.088H1.5ZM6.736 17.588H1V18.588H6.736V17.588ZM11.345 16.6168C10.1763 17.2529 8.64976 17.588 6.736 17.588V18.588C8.75824 18.588 10.4637 18.2351 11.823 17.4952L11.345 16.6168ZM13.9665 13.909C13.4062 15.0592 12.5376 15.9609 11.343 16.6179L11.825 17.4941C13.1904 16.7431 14.2098 15.6928 14.8655 14.347L13.9665 13.909ZM14.852 9.688C14.852 11.3226 14.5515 12.7241 13.9677 13.9067L14.8643 14.3493C15.5285 13.0039 15.852 11.4454 15.852 9.688H14.852ZM13.9688 5.49561C14.5514 6.6608 14.852 8.05313 14.852 9.688H15.852C15.852 7.93087 15.5286 6.3792 14.8632 5.04839L13.9688 5.49561ZM11.3473 2.78441C12.5377 3.42428 13.405 4.32364 13.9654 5.48874L14.8666 5.05526C14.211 3.69236 13.1903 2.63973 11.8207 1.90359L11.3473 2.78441ZM6.736 1.788C8.64821 1.788 10.1731 2.13051 11.3407 2.78082L11.8273 1.90718C10.4669 1.14949 8.7598 0.788 6.736 0.788V1.788ZM1 1.788H6.736V0.788H1V1.788ZM4.072 15.948H6.592V14.948H4.072V15.948ZM3.572 3.904V15.448H4.572V3.904H3.572ZM6.592 3.404H4.072V4.404H6.592V3.404ZM10.1752 4.16536C9.25533 3.64232 8.0466 3.404 6.592 3.404V4.404C7.9534 4.404 8.96867 4.62968 9.68085 5.03465L10.1752 4.16536ZM12.143 6.40335C11.7484 5.43476 11.088 4.68444 10.1752 4.16536L9.68085 5.03465C10.4 5.44356 10.9076 6.02124 11.217 6.78065L12.143 6.40335ZM12.708 9.688C12.708 8.44102 12.5253 7.34171 12.143 6.40335L11.217 6.78065C11.5387 7.57029 11.708 8.53498 11.708 9.688H12.708ZM12.143 12.9966C12.5256 12.0576 12.708 10.95 12.708 9.688H11.708C11.708 10.858 11.5384 11.8304 11.217 12.6194L12.143 12.9966ZM10.1752 15.2106C11.0854 14.6931 11.7462 13.9527 12.1418 12.9997L11.2182 12.6163C10.9098 13.3593 10.4026 13.9309 9.68085 14.3414L10.1752 15.2106ZM6.592 15.948C8.0445 15.948 9.25058 15.7183 10.1686 15.2143L9.68737 14.3377C8.97342 14.7297 7.9555 14.948 6.592 14.948V15.948ZM23.7025 17.876C22.6301 17.876 21.6765 17.6312 20.8298 17.1494L20.3352 18.0186C21.3445 18.5928 22.4709 18.876 23.7025 18.876V17.876ZM26.5512 17.1494C25.7034 17.6318 24.7575 17.876 23.7025 17.876V18.876C24.9195 18.876 26.0376 18.5922 27.0458 18.0186L26.5512 17.1494ZM28.5479 15.1527C28.0644 16.0026 27.4011 16.6659 26.5512 17.1494L27.0458 18.0186C28.0519 17.4461 28.8446 16.6534 29.4171 15.6473L28.5479 15.1527ZM29.2985 12.136C29.2985 13.292 29.044 14.2918 28.5493 15.1504L29.4157 15.6497C30.009 14.6202 30.2985 13.444 30.2985 12.136H29.2985ZM28.5512 9.14886C29.044 9.98959 29.2985 10.9798 29.2985 12.136H30.2985C30.2985 10.8282 30.009 9.65841 29.4138 8.64314L28.5512 9.14886ZM26.5512 7.12258C27.3989 7.60489 28.062 8.27454 28.5461 9.14008L29.4189 8.65192C28.847 7.62947 28.0541 6.82711 27.0458 6.25342L26.5512 7.12258ZM23.7265 6.396C24.7816 6.396 25.718 6.64021 26.548 7.12071L27.049 6.25529C26.055 5.67979 24.9434 5.396 23.7265 5.396V6.396ZM20.8538 7.12258C21.7005 6.64082 22.6541 6.396 23.7265 6.396V5.396C22.4949 5.396 21.3685 5.67918 20.3592 6.25342L20.8538 7.12258ZM18.8557 9.14565C19.3575 8.27495 20.0236 7.60324 20.857 7.12071L20.356 6.25529C19.3654 6.82876 18.5755 7.62905 17.9893 8.64635L18.8557 9.14565ZM18.1065 12.136C18.1065 10.9798 18.361 9.98959 18.8538 9.14886L17.9912 8.64314C17.396 9.65841 17.1065 10.8282 17.1065 12.136H18.1065ZM18.8349 15.1559C18.3541 14.2964 18.1065 13.2946 18.1065 12.136H17.1065C17.1065 13.4414 17.3869 14.6156 17.9621 15.6441L18.8349 15.1559ZM20.833 17.1513C19.9974 16.6675 19.3311 16.0022 18.8298 15.1471L17.9672 15.6529C18.5539 16.6538 19.3436 17.4445 20.332 18.0167L20.833 17.1513ZM23.7025 16.212C24.6418 16.212 25.4631 15.8585 26.1441 15.1776L25.4369 14.4704C24.9339 14.9735 24.3632 15.212 23.7025 15.212V16.212ZM21.2609 15.1776C21.9419 15.8585 22.7632 16.212 23.7025 16.212V15.212C23.0418 15.212 22.4711 14.9735 21.9681 14.4704L21.2609 15.1776ZM20.2505 12.136C20.2505 13.3948 20.5568 14.4345 21.2515 15.1679L21.9775 14.4801C21.5202 13.9975 21.2505 13.2452 21.2505 12.136H20.2505ZM21.2561 9.12332C20.5563 9.84257 20.2505 10.8783 20.2505 12.136H21.2505C21.2505 11.0257 21.5207 10.2854 21.9729 9.82068L21.2561 9.12332ZM23.7265 8.06C22.7697 8.06 21.9382 8.42285 21.2563 9.12319L21.9727 9.82081C22.4748 9.30515 23.0513 9.06 23.7265 9.06V8.06ZM26.1487 9.12319C25.4712 8.42735 24.6573 8.06 23.7265 8.06V9.06C24.3637 9.06 24.9258 9.30065 25.4323 9.82081L26.1487 9.12319ZM27.1785 12.136C27.1785 10.8749 26.8629 9.83729 26.1441 9.11845L25.4369 9.82555C25.9021 10.2907 26.1785 11.0291 26.1785 12.136H27.1785ZM26.1487 15.1728C26.8625 14.4398 27.1785 13.3982 27.1785 12.136H26.1785C26.1785 13.2418 25.9025 13.9922 25.4323 14.4752L26.1487 15.1728ZM38.2572 17.876C37.1848 17.876 36.2312 17.6312 35.3844 17.1494L34.8899 18.0186C35.8992 18.5928 37.0255 18.876 38.2572 18.876V17.876ZM41.1059 17.1494C40.2581 17.6318 39.3122 17.876 38.2572 17.876V18.876C39.4741 18.876 40.5923 18.5922 41.6004 18.0186L41.1059 17.1494ZM43.1026 15.1527C42.6191 16.0026 41.9558 16.6659 41.1059 17.1494L41.6004 18.0186C42.6066 17.4461 43.3993 16.6534 43.9718 15.6473L43.1026 15.1527ZM43.8532 12.136C43.8532 13.292 43.5987 14.2918 43.104 15.1504L43.9704 15.6497C44.5636 14.6202 44.8532 13.444 44.8532 12.136H43.8532ZM43.1058 9.14886C43.5987 9.98959 43.8532 10.9798 43.8532 12.136H44.8532C44.8532 10.8282 44.5637 9.65841 43.9685 8.64314L43.1058 9.14886ZM41.1059 7.12258C41.9536 7.60489 42.6167 8.27453 43.1008 9.14008L43.9736 8.65192C43.4017 7.62947 42.6088 6.82711 41.6004 6.25342L41.1059 7.12258ZM38.2812 6.396C39.3363 6.396 40.2727 6.64021 41.1027 7.12071L41.6037 6.25529C40.6097 5.67979 39.4981 5.396 38.2812 5.396V6.396ZM35.4084 7.12258C36.2552 6.64082 37.2088 6.396 38.2812 6.396V5.396C37.0496 5.396 35.9232 5.67918 34.9139 6.25342L35.4084 7.12258ZM33.4104 9.14565C33.9122 8.27495 34.5782 7.60324 35.4117 7.12071L34.9107 6.25529C33.9201 6.82876 33.1302 7.62905 32.544 8.64635L33.4104 9.14565ZM32.6612 12.136C32.6612 10.9798 32.9157 9.98959 33.4085 9.14886L32.5458 8.64314C31.9507 9.65841 31.6612 10.8282 31.6612 12.136H32.6612ZM33.3896 15.1559C32.9088 14.2964 32.6612 13.2946 32.6612 12.136H31.6612C31.6612 13.4414 31.9416 14.6156 32.5168 15.6441L33.3896 15.1559ZM35.3877 17.1513C34.5521 16.6675 33.8858 16.0022 33.3845 15.1471L32.5218 15.6529C33.1086 16.6538 33.8983 17.4445 34.8867 18.0167L35.3877 17.1513ZM38.2572 16.212C39.1965 16.212 40.0178 15.8585 40.6987 15.1776L39.9916 14.4704C39.4885 14.9735 38.9179 15.212 38.2572 15.212V16.212ZM35.8156 15.1776C36.4965 15.8585 37.3179 16.212 38.2572 16.212V15.212C37.5965 15.212 37.0258 14.9735 36.5227 14.4704L35.8156 15.1776ZM34.8052 12.136C34.8052 13.3949 35.1115 14.4345 35.8062 15.1679L36.5322 14.4801C36.0749 13.9975 35.8052 13.2452 35.8052 12.136H34.8052ZM35.8108 9.12332C35.111 9.84257 34.8052 10.8783 34.8052 12.136H35.8052C35.8052 11.0257 36.0754 10.2854 36.5276 9.82068L35.8108 9.12332ZM38.2812 8.06C37.3243 8.06 36.4929 8.42285 35.811 9.12319L36.5274 9.82081C37.0295 9.30515 37.606 9.06 38.2812 9.06V8.06ZM40.7034 9.12319C40.0259 8.42735 39.212 8.06 38.2812 8.06V9.06C38.9184 9.06 39.4805 9.30065 39.987 9.82081L40.7034 9.12319ZM41.7332 12.136C41.7332 10.8749 41.4176 9.83729 40.6987 9.11845L39.9916 9.82555C40.4568 10.2907 40.7332 11.0291 40.7332 12.136H41.7332ZM40.7034 15.1728C41.4171 14.4398 41.7332 13.3982 41.7332 12.136H40.7332C40.7332 13.2418 40.4572 13.9922 39.987 14.4752L40.7034 15.1728Z" fill="white"/>
</svg>
